<?xml version="1.0" encoding="UTF-8"?>
<svg id="svg" version="1.1" width="1247" height="300" viewBox="0 0 1247 300" xmlns="http://www.w3.org/2000/svg" xmlns:xlink="http://www.w3.org/1999/xlink"><path d="M256.266 20.421 C 238.501 27.021,216.868 45.818,203.465 66.300 C 198.880 73.307,198.478 73.642,192.602 75.366 C 184.263 77.812,175.529 82.145,169.245 86.955 L 163.991 90.976 158.017 86.433 C 150.519 80.730,139.331 75.518,129.826 73.300 L 122.500 71.590 109.455 59.045 C 93.929 44.114,82.399 35.704,67.500 28.441 C 50.040 19.931,36.609 17.082,30.017 20.491 C 25.959 22.590,21.543 32.253,18.818 45.000 C 16.892 54.008,16.570 58.555,16.553 77.000 C 16.533 97.173,16.702 99.171,19.277 109.374 C 20.786 115.355,23.638 123.905,25.613 128.374 L 29.205 136.500 29.054 169.500 C 28.894 204.306,29.988 220.477,34.014 242.834 C 37.822 263.983,42.622 271.984,55.411 278.500 C 63.081 282.408,63.494 282.499,73.381 282.435 C 81.425 282.383,84.686 281.904,89.282 280.101 C 101.379 275.354,107.713 267.570,110.623 253.870 C 112.595 244.586,112.099 216.459,109.462 188.000 C 107.438 166.168,107.822 160.553,111.649 156.005 C 114.892 152.151,120.529 151.805,123.776 155.262 C 128.235 160.008,129.080 167.013,130.020 207.000 C 130.983 247.985,131.678 253.685,137.056 264.708 C 138.808 268.300,141.824 272.405,144.213 274.450 C 158.469 286.653,186.518 285.235,197.181 271.772 C 206.120 260.485,207.406 244.303,204.360 181.408 C 204.011 174.208,204.039 166.222,204.423 163.663 C 205.357 157.439,209.094 153.000,213.400 153.000 C 217.820 153.000,220.620 155.939,222.705 162.768 C 224.237 167.787,224.465 173.350,224.533 207.500 C 224.617 249.800,224.963 253.072,230.493 263.986 C 238.004 278.808,256.355 286.063,275.147 281.640 C 285.532 279.195,293.097 273.155,297.599 263.715 C 298.573 261.672,299.702 260.000,300.107 260.000 C 300.513 260.000,302.395 261.811,304.290 264.025 C 313.430 274.704,331.956 285.606,346.087 288.622 C 362.248 292.070,381.992 288.665,396.520 279.923 C 404.322 275.229,413.732 265.662,418.346 257.731 L 422.193 251.121 427.130 258.503 C 436.536 272.565,449.904 282.524,467.000 288.205 C 475.964 291.184,477.375 291.366,492.000 291.431 C 509.759 291.510,517.949 289.763,530.334 283.255 C 537.710 279.379,546.664 271.865,548.912 267.664 L 550.276 265.116 553.997 270.808 C 564.883 287.456,593.868 298.095,624.500 296.685 C 659.032 295.096,679.939 282.668,687.148 259.444 L 689.390 252.223 692.327 256.854 C 696.919 264.095,708.809 275.739,716.500 280.525 C 730.156 289.024,751.611 293.942,768.999 292.558 C 781.761 291.543,790.515 289.304,800.563 284.484 C 820.324 275.006,828.345 261.018,823.526 244.440 C 822.200 239.881,820.669 237.384,816.872 233.587 C 813.291 230.005,812.291 228.432,813.220 227.843 C 813.924 227.396,814.816 227.024,815.202 227.015 C 815.588 227.007,817.464 225.393,819.371 223.430 L 822.839 219.859 823.488 225.680 C 824.400 233.851,828.883 260.696,830.137 265.500 C 831.605 271.122,835.660 278.987,838.822 282.343 C 845.218 289.134,858.692 293.036,868.623 290.974 C 880.779 288.451,887.742 279.999,890.233 264.742 L 891.500 256.985 906.738 271.346 C 925.799 289.312,930.724 292.214,943.169 292.817 C 953.785 293.331,961.096 291.321,967.003 286.266 C 971.034 282.815,975.000 276.504,975.000 273.540 C 975.000 271.306,975.546 271.534,981.896 276.420 C 997.257 288.240,1012.079 293.009,1033.378 292.985 C 1048.848 292.968,1056.857 291.360,1065.710 286.495 L 1071.920 283.082 1077.037 286.525 C 1083.569 290.921,1090.622 293.000,1099.000 293.000 C 1108.861 293.000,1115.332 290.720,1120.695 285.358 L 1125.205 280.848 1126.829 283.174 C 1133.255 292.379,1146.083 297.158,1158.851 295.101 C 1166.273 293.906,1169.813 292.116,1173.854 287.514 C 1180.437 280.016,1182.000 271.436,1181.999 242.808 C 1181.997 219.814,1180.125 200.691,1176.461 186.246 C 1175.121 180.964,1174.225 176.442,1174.469 176.197 C 1174.714 175.953,1178.196 174.647,1182.207 173.297 C 1196.433 168.506,1204.702 163.420,1215.098 153.062 C 1223.162 145.029,1225.427 142.031,1229.266 134.312 C 1235.594 121.589,1237.408 112.774,1236.714 98.110 C 1236.364 90.725,1235.383 83.781,1234.017 79.027 C 1226.262 52.042,1203.649 29.792,1175.500 21.450 C 1163.344 17.847,1145.116 16.989,1132.927 19.445 C 1107.923 24.484,1087.245 40.284,1076.579 62.500 C 1071.292 73.513,1069.857 79.421,1069.294 92.500 C 1068.864 102.480,1069.130 105.976,1070.874 113.269 C 1072.028 118.091,1073.888 123.935,1075.009 126.255 C 1077.591 131.600,1076.617 134.194,1070.285 138.837 L 1065.734 142.174 1059.117 139.127 C 1048.851 134.401,1040.078 132.628,1027.000 132.636 C 1005.575 132.649,991.867 138.328,975.776 153.861 C 972.628 156.899,969.894 159.186,969.700 158.943 C 969.506 158.699,968.310 156.776,967.042 154.669 C 963.950 149.530,956.196 143.558,949.903 141.468 C 942.815 139.113,932.316 139.324,926.403 141.940 C 923.019 143.437,917.420 148.445,905.635 160.515 C 896.761 169.605,888.938 177.032,888.250 177.021 C 887.361 177.006,886.995 174.763,886.983 169.250 C 886.947 153.357,883.337 128.142,879.452 116.661 C 873.988 100.510,865.126 93.825,849.000 93.693 C 838.301 93.605,832.106 98.031,828.639 108.241 C 825.366 117.881,823.067 139.619,821.736 173.500 L 821.500 179.500 819.255 174.634 C 810.554 155.776,791.920 140.334,771.278 134.876 C 761.306 132.239,744.357 132.001,735.000 134.367 C 707.406 141.344,686.867 164.884,681.495 195.691 C 680.673 200.405,680.000 206.201,680.000 208.571 L 680.000 212.880 674.791 207.372 C 671.926 204.343,666.970 200.252,663.779 198.283 L 657.976 194.701 663.055 192.981 C 668.834 191.025,674.182 186.347,677.326 180.500 C 679.042 177.306,679.478 174.777,679.488 167.952 C 679.499 160.135,679.243 159.010,676.499 154.791 C 668.830 143.002,651.501 135.146,627.975 132.794 C 589.351 128.932,557.488 147.308,553.163 175.940 L 552.492 180.381 548.773 172.940 C 539.567 154.528,524.133 140.915,506.280 135.462 C 493.004 131.408,474.545 131.662,461.257 136.082 C 447.803 140.557,432.621 153.494,424.618 167.302 C 422.483 170.986,420.630 174.000,420.500 174.000 C 420.370 174.000,418.517 170.973,416.382 167.274 C 411.412 158.664,399.503 146.117,391.631 141.198 C 379.427 133.572,369.432 130.785,354.000 130.706 C 334.938 130.608,320.762 136.240,307.905 149.019 L 300.311 156.568 298.491 148.034 C 296.305 137.787,296.212 133.425,298.010 125.500 C 300.207 115.816,299.798 90.854,297.207 76.500 C 292.155 48.516,282.498 25.323,273.650 19.928 C 269.509 17.403,263.965 17.560,256.266 20.421 M1175.000 27.869 C 1187.707 32.046,1197.623 37.736,1206.052 45.687 C 1221.735 60.482,1230.025 79.541,1229.985 100.708 C 1229.911 139.661,1196.925 170.052,1154.792 169.985 C 1139.917 169.962,1122.716 164.772,1111.522 156.930 L 1105.767 152.899 1093.304 154.506 C 1075.951 156.743,1075.738 156.488,1081.551 140.429 L 1085.102 130.619 1082.637 125.059 C 1068.452 93.069,1078.493 57.217,1107.320 36.923 C 1120.563 27.600,1134.218 23.854,1153.000 24.390 C 1163.709 24.696,1166.861 25.194,1175.000 27.869 M51.211 29.572 C 67.049 34.959,89.556 49.644,102.883 63.288 L 109.267 69.823 103.383 70.505 C 92.819 71.729,84.376 73.786,76.571 77.035 C 59.669 84.071,44.421 98.754,37.470 114.686 C 35.356 119.534,33.309 123.878,32.923 124.340 C 32.537 124.802,31.462 122.897,30.536 120.108 C 21.779 93.745,22.058 50.098,31.102 31.312 C 32.211 29.008,33.879 26.914,34.809 26.657 C 37.479 25.919,43.745 27.032,51.211 29.572 M271.717 28.250 C 277.048 34.057,284.177 52.740,287.838 70.500 C 290.767 84.709,292.383 104.869,291.324 114.000 L 290.454 121.500 286.667 114.372 C 273.225 89.070,247.560 72.891,219.198 71.840 C 214.144 71.653,210.011 71.275,210.014 71.000 C 210.029 69.602,221.287 55.782,227.353 49.716 C 236.380 40.689,244.634 34.642,254.447 29.867 C 263.758 25.337,268.624 24.881,271.717 28.250 M1140.207 41.500 C 1136.001 45.625,1132.362 49.000,1132.121 49.000 C 1131.879 49.000,1129.388 47.268,1126.585 45.152 C 1122.308 41.923,1121.126 41.465,1119.244 42.304 C 1118.010 42.855,1117.000 43.687,1117.000 44.154 C 1117.000 44.620,1119.700 47.099,1123.000 49.662 C 1126.300 52.224,1129.000 54.424,1129.000 54.550 C 1129.000 54.675,1127.231 57.805,1125.069 61.505 C 1121.554 67.520,1119.105 72.882,1116.073 81.197 L 1115.090 83.894 1103.412 79.970 C 1096.988 77.812,1091.343 76.288,1090.867 76.582 C 1090.390 76.877,1090.000 78.191,1090.000 79.503 C 1090.000 81.671,1091.051 82.217,1101.500 85.479 C 1107.825 87.453,1113.000 89.551,1113.000 90.141 C 1113.000 90.731,1112.339 95.103,1111.532 99.857 C 1110.725 104.611,1109.789 111.538,1109.453 115.250 L 1108.841 122.000 1102.502 122.000 C 1093.457 122.000,1092.654 122.431,1094.621 126.233 C 1096.180 129.249,1096.238 129.267,1102.586 128.674 C 1109.769 128.003,1108.816 126.968,1110.946 137.764 C 1112.680 146.553,1114.489 149.720,1119.639 152.986 C 1122.253 154.644,1124.710 156.000,1125.100 156.000 C 1125.489 156.000,1124.496 153.579,1122.894 150.620 C 1119.757 144.829,1115.629 130.409,1116.640 128.774 C 1117.691 127.073,1140.899 130.573,1141.656 132.547 C 1141.908 133.201,1140.248 139.471,1137.968 146.480 C 1135.688 153.488,1134.200 159.583,1134.661 160.025 C 1135.122 160.466,1136.601 160.978,1137.947 161.164 C 1140.732 161.546,1140.907 161.181,1145.980 144.318 L 1149.044 134.136 1153.272 135.590 C 1155.597 136.390,1161.066 139.010,1165.424 141.412 L 1173.348 145.780 1168.112 150.800 C 1163.549 155.174,1157.391 158.983,1150.500 161.692 C 1149.147 162.224,1150.673 162.578,1155.213 162.784 C 1163.237 163.149,1166.109 161.902,1173.642 154.777 L 1178.900 149.804 1183.410 153.043 C 1187.875 156.249,1187.948 156.264,1190.643 154.498 L 1193.366 152.714 1190.933 150.739 C 1189.595 149.653,1187.244 147.778,1185.708 146.574 L 1182.916 144.384 1187.390 135.942 C 1189.850 131.299,1192.832 125.025,1194.015 122.000 C 1195.199 118.975,1196.320 116.347,1196.507 116.160 C 1196.694 115.973,1201.377 117.304,1206.914 119.119 C 1217.183 122.485,1218.502 122.425,1219.166 118.561 C 1219.450 116.915,1217.911 116.083,1209.000 113.061 C 1203.225 111.102,1198.531 109.275,1198.569 109.000 C 1199.641 101.251,1201.187 88.888,1201.758 83.500 L 1202.500 76.500 1208.668 76.000 C 1215.766 75.425,1216.572 74.938,1215.071 72.133 C 1214.185 70.478,1212.815 70.039,1207.782 69.797 L 1201.583 69.500 1200.350 63.500 C 1198.063 52.371,1196.726 49.754,1191.531 46.229 C 1188.879 44.429,1186.520 43.146,1186.289 43.377 C 1186.058 43.609,1187.216 46.206,1188.863 49.149 C 1191.679 54.181,1195.000 64.666,1195.000 68.523 C 1195.000 70.086,1194.182 70.189,1186.750 69.559 C 1177.988 68.816,1170.261 67.231,1169.515 66.023 C 1169.266 65.622,1170.866 59.319,1173.069 52.017 C 1175.272 44.716,1176.945 38.612,1176.786 38.452 C 1176.626 38.293,1175.291 37.860,1173.817 37.490 C 1171.218 36.838,1171.076 37.034,1169.010 44.159 C 1167.839 48.197,1165.958 54.349,1164.832 57.831 C 1162.883 63.852,1162.653 64.130,1160.141 63.505 C 1156.836 62.683,1142.131 55.729,1139.665 53.822 C 1137.950 52.495,1138.282 51.976,1144.761 45.864 C 1148.605 42.238,1153.764 38.473,1156.343 37.413 C 1158.900 36.361,1160.994 35.163,1160.996 34.750 C 1160.998 34.338,1158.042 34.000,1154.427 34.000 L 1147.854 34.000 1140.207 41.500 M1142.173 61.935 C 1146.203 64.100,1152.088 66.832,1155.250 68.007 C 1158.413 69.182,1161.000 70.240,1161.000 70.358 C 1161.000 71.454,1154.060 94.274,1153.580 94.753 C 1153.232 95.101,1149.921 94.452,1146.223 93.311 C 1125.937 87.049,1122.521 85.915,1121.905 85.240 C 1120.733 83.955,1132.707 58.000,1134.472 58.000 C 1134.678 58.000,1138.143 59.771,1142.173 61.935 M1173.000 73.507 C 1176.025 74.323,1182.278 75.289,1186.895 75.654 L 1195.289 76.317 1194.671 87.909 C 1194.047 99.612,1192.638 107.000,1191.031 107.000 C 1189.986 107.000,1160.651 97.952,1160.157 97.478 C 1159.969 97.296,1160.565 94.527,1161.481 91.324 C 1164.203 81.813,1167.184 71.999,1167.347 72.012 C 1167.431 72.018,1169.975 72.691,1173.000 73.507 M131.500 80.983 C 141.636 84.189,150.972 89.378,157.920 95.666 L 164.000 101.168 170.242 95.519 C 181.767 85.090,198.442 78.994,215.410 79.007 C 247.859 79.032,274.402 98.974,285.595 131.738 C 291.853 150.057,292.475 156.533,292.488 203.500 C 292.501 249.300,292.175 252.407,286.420 261.241 C 279.157 272.391,259.730 274.982,245.826 266.656 C 241.695 264.182,239.960 262.312,237.792 258.000 C 233.005 248.479,231.989 238.595,231.994 201.589 C 232.000 166.484,231.315 159.459,227.084 151.164 C 220.304 137.874,205.387 138.293,198.476 151.967 C 195.893 157.078,195.527 169.365,196.957 202.954 C 198.753 245.139,197.020 257.232,188.011 265.371 C 182.908 269.981,177.978 271.503,168.500 271.395 C 156.572 271.258,148.026 266.893,143.916 258.836 C 139.787 250.742,138.913 243.069,138.010 207.000 C 137.536 188.025,136.659 169.350,136.062 165.500 C 134.532 155.631,129.647 146.226,124.500 143.239 C 115.327 137.916,104.368 143.816,101.016 155.882 C 99.756 160.418,99.734 179.621,100.975 191.500 C 103.134 212.176,103.968 233.551,102.963 242.500 C 100.742 262.279,91.529 271.000,72.856 271.000 C 61.001 271.000,51.285 265.599,46.691 256.456 C 40.926 244.981,35.976 204.891,36.017 170.017 C 36.054 139.212,39.713 123.073,50.220 107.362 C 60.092 92.603,73.987 83.963,96.500 78.586 C 97.600 78.323,104.350 78.257,111.500 78.438 C 121.455 78.691,126.140 79.287,131.500 80.983 M1136.154 96.595 C 1144.044 99.122,1150.802 101.484,1151.170 101.845 C 1151.731 102.393,1145.512 124.821,1144.525 125.808 C 1144.347 125.986,1142.325 125.626,1140.031 125.008 C 1137.737 124.391,1131.504 123.337,1126.180 122.667 L 1116.500 121.450 1116.559 114.475 C 1116.639 104.982,1118.942 92.000,1120.546 92.000 C 1121.240 92.000,1128.264 94.068,1136.154 96.595 M863.299 103.643 C 873.486 110.802,877.901 130.410,879.635 176.209 L 880.306 193.918 882.903 192.059 C 888.259 188.226,905.844 171.459,915.303 161.167 C 926.126 149.390,931.387 146.028,939.000 146.023 C 947.186 146.017,957.659 152.573,961.582 160.158 C 964.116 165.058,963.604 174.246,960.436 180.721 C 957.483 186.755,941.330 204.260,931.523 212.053 L 925.926 216.500 930.713 220.907 C 964.170 251.705,967.000 255.093,967.000 264.356 C 967.000 277.462,953.742 286.164,938.573 283.015 C 930.640 281.368,925.908 277.831,907.261 259.610 L 890.297 243.033 886.291 246.766 C 882.372 250.419,882.273 250.680,881.735 258.778 C 880.686 274.570,874.604 281.228,861.114 281.351 C 852.063 281.434,845.955 278.485,842.316 272.276 C 836.170 261.789,830.401 226.713,829.359 193.500 C 828.302 159.795,831.603 116.269,835.840 108.056 C 836.849 106.100,839.210 103.444,841.087 102.154 C 844.101 100.081,845.354 99.860,851.811 100.257 C 857.858 100.630,859.846 101.215,863.299 103.643 M1173.948 108.484 C 1181.879 110.950,1188.710 113.313,1189.128 113.734 C 1190.383 115.000,1180.987 136.060,1177.486 139.824 C 1177.320 140.003,1174.101 138.553,1170.333 136.603 C 1166.564 134.653,1160.785 131.949,1157.491 130.595 C 1152.390 128.498,1151.540 127.788,1151.767 125.816 C 1152.208 121.989,1158.002 104.000,1158.794 104.000 C 1159.198 104.000,1166.018 106.018,1173.948 108.484 M375.882 140.859 C 390.386 146.219,402.489 157.028,410.750 172.000 C 416.034 181.577,416.398 183.814,414.445 194.665 C 412.510 205.410,412.886 221.134,415.318 231.146 C 416.961 237.913,415.909 241.485,409.098 252.244 C 400.871 265.239,386.511 275.299,372.257 278.052 C 363.285 279.785,346.064 278.824,338.333 276.160 C 326.231 271.989,312.274 261.775,305.684 252.266 L 303.026 248.430 302.644 207.965 L 302.262 167.500 305.208 162.793 C 309.495 155.941,319.884 146.675,327.458 142.946 C 337.388 138.058,342.885 136.990,356.000 137.401 C 365.844 137.710,368.707 138.207,375.882 140.859 M500.947 140.549 C 522.185 145.555,539.823 162.899,546.140 184.990 C 548.347 192.708,548.600 205.628,546.636 210.329 C 544.897 214.491,539.986 218.632,535.219 219.956 C 533.007 220.570,518.055 220.991,498.311 220.994 L 465.121 221.000 466.615 225.383 C 468.651 231.358,474.185 237.541,480.362 240.743 C 484.649 242.965,486.825 243.411,493.500 243.435 C 501.775 243.466,505.011 242.349,518.384 234.845 C 527.163 229.918,538.146 233.532,543.018 242.951 C 544.786 246.369,544.600 254.938,542.678 258.656 C 540.760 262.365,534.866 268.107,528.855 272.122 C 518.751 278.872,497.578 282.966,482.851 281.018 C 464.651 278.611,453.669 273.511,441.976 262.035 C 433.166 253.389,427.799 244.531,424.089 232.513 C 421.898 225.414,421.614 222.674,421.603 208.500 C 421.592 193.810,421.810 191.845,424.260 184.500 C 431.702 162.195,447.943 146.261,469.000 140.608 C 476.247 138.663,492.813 138.632,500.947 140.549 M642.464 141.518 C 650.598 143.777,660.333 148.304,664.990 151.992 C 676.492 161.102,672.312 179.146,657.795 183.055 C 652.037 184.606,648.017 183.615,636.229 177.744 C 627.038 173.166,625.294 172.634,619.647 172.687 C 612.096 172.758,606.254 175.202,604.857 178.875 C 602.596 184.823,607.551 188.298,623.569 191.995 C 654.552 199.146,669.954 208.235,677.272 223.685 C 680.272 230.018,680.500 231.243,680.500 241.000 C 680.500 250.714,680.263 252.000,677.335 258.180 C 669.517 274.682,655.066 283.332,630.789 286.038 C 608.075 288.570,582.429 283.043,568.164 272.542 C 560.845 267.154,557.664 261.257,557.672 253.090 C 557.680 244.574,561.498 238.779,569.232 235.548 C 576.929 232.332,584.137 234.027,597.800 242.269 C 609.039 249.049,615.800 250.826,624.000 249.157 C 630.286 247.877,634.000 244.520,634.000 240.119 C 634.000 234.292,628.392 231.361,607.088 226.052 C 587.571 221.189,577.956 216.963,570.620 210.025 C 563.567 203.355,560.811 197.080,560.212 186.329 C 558.937 163.417,573.953 146.539,601.000 140.484 C 609.589 138.561,634.012 139.170,642.464 141.518 M768.500 140.504 C 789.564 144.927,808.352 162.437,815.452 184.264 C 817.807 191.502,818.157 194.034,817.854 201.619 C 817.446 211.854,815.620 215.471,809.270 218.627 C 805.835 220.334,802.328 220.526,769.750 220.797 C 750.088 220.961,734.000 221.261,734.000 221.464 C 734.000 221.668,734.856 223.830,735.901 226.270 C 738.532 232.406,743.391 237.638,749.410 240.814 C 753.903 243.185,755.613 243.499,764.000 243.493 C 773.897 243.485,777.349 242.360,789.984 235.023 C 799.729 229.365,813.268 235.613,816.008 247.034 C 819.883 263.188,800.396 278.390,771.295 281.915 C 748.534 284.672,725.811 278.006,710.896 264.198 C 694.850 249.342,687.934 232.776,687.935 209.203 C 687.936 174.882,707.281 147.707,736.808 140.547 C 744.393 138.708,759.843 138.687,768.500 140.504 M1044.500 141.503 C 1051.695 143.371,1059.953 147.248,1064.013 150.664 L 1066.975 153.157 1069.086 149.578 C 1070.247 147.610,1071.370 146.000,1071.581 146.000 C 1071.792 146.000,1071.913 148.270,1071.850 151.045 C 1071.760 155.037,1072.219 156.604,1074.044 158.547 C 1077.585 162.316,1081.285 162.860,1092.745 161.301 L 1102.990 159.906 1106.583 162.703 L 1110.177 165.500 1109.606 173.000 C 1106.979 207.533,1107.928 222.689,1114.040 243.771 C 1119.376 262.178,1119.917 267.474,1117.062 273.372 C 1113.802 280.106,1109.586 282.312,1099.056 282.794 C 1091.157 283.156,1090.078 282.964,1085.005 280.293 C 1081.727 278.568,1078.297 275.730,1076.505 273.261 C 1074.852 270.985,1073.105 269.095,1072.621 269.061 C 1072.138 269.027,1070.017 270.559,1067.907 272.465 C 1052.603 286.291,1021.367 287.568,997.700 275.335 C 986.609 269.602,975.451 257.898,969.619 245.879 C 963.337 232.933,961.623 225.251,961.615 210.000 C 961.608 196.261,963.009 189.347,968.058 178.212 C 976.890 158.733,993.971 144.582,1013.585 140.493 C 1021.817 138.777,1035.755 139.233,1044.500 141.503 M345.239 173.335 C 328.263 179.491,321.408 207.662,332.344 226.324 C 343.484 245.333,370.303 244.277,379.102 224.483 C 387.263 206.123,380.026 180.912,364.581 173.897 C 359.902 171.772,350.316 171.494,345.239 173.335 M1127.430 175.113 C 1126.702 176.292,1128.344 176.253,1129.550 175.063 C 1130.141 174.480,1133.142 174.712,1137.500 175.678 C 1141.350 176.532,1148.901 177.289,1154.280 177.361 L 1164.060 177.492 1166.037 181.577 C 1170.802 191.420,1173.998 215.141,1173.999 240.678 C 1174.001 266.594,1171.346 277.950,1164.177 282.698 C 1159.681 285.676,1152.998 286.537,1146.128 285.024 C 1138.215 283.281,1131.956 276.834,1129.053 267.437 C 1121.738 243.753,1119.196 206.266,1123.129 180.079 C 1124.274 172.454,1124.728 171.530,1126.578 173.065 C 1127.348 173.704,1127.731 174.626,1127.430 175.113 M481.137 174.369 C 474.313 176.839,464.595 187.918,466.521 191.034 C 467.148 192.049,508.224 192.443,509.223 191.444 C 510.284 190.383,507.671 184.057,504.665 180.410 C 499.232 173.818,489.537 171.329,481.137 174.369 M749.137 174.369 C 742.313 176.839,732.595 187.918,734.521 191.034 C 735.480 192.585,778.005 192.307,777.978 190.750 C 777.934 188.230,774.174 181.427,771.376 178.803 C 765.589 173.377,756.750 171.614,749.137 174.369 M1028.089 182.064 C 1015.640 184.567,1007.242 197.359,1008.212 212.343 C 1009.548 232.969,1025.564 245.124,1044.500 239.882 C 1053.893 237.281,1061.000 225.761,1061.000 213.134 C 1061.000 192.923,1045.738 178.514,1028.089 182.064 M363.443 184.972 C 367.995 187.176,372.440 193.206,374.124 199.462 C 375.805 205.705,374.832 216.730,372.107 222.316 C 364.905 237.079,344.645 235.755,337.706 220.069 C 334.921 213.772,334.894 202.039,337.651 196.000 C 342.827 184.666,353.438 180.129,363.443 184.972 M497.215 184.815 C 498.128 185.728,496.349 185.993,489.450 185.968 C 481.175 185.939,480.651 185.820,482.500 184.389 C 484.843 182.577,495.279 182.879,497.215 184.815 M626.214 184.043 C 628.256 184.610,630.169 185.465,630.464 185.942 C 630.963 186.749,620.003 184.309,619.083 183.408 C 618.297 182.638,622.502 183.012,626.214 184.043 M765.215 184.815 C 766.128 185.728,764.291 186.000,757.200 186.000 C 752.140 186.000,748.000 185.760,748.000 185.468 C 748.000 183.033,762.869 182.469,765.215 184.815 M1041.746 194.538 C 1046.545 196.543,1048.768 198.629,1051.213 203.419 C 1053.534 207.966,1053.944 216.610,1052.103 222.187 C 1050.328 227.565,1044.198 232.698,1038.536 233.547 C 1019.918 236.339,1008.688 211.058,1022.661 197.807 C 1027.849 192.887,1034.902 191.679,1041.746 194.538 M559.977 212.114 C 561.799 214.926,565.975 219.312,569.256 221.860 L 575.221 226.492 571.051 227.204 C 564.844 228.264,558.939 231.955,555.054 237.204 L 551.596 241.876 550.176 238.944 C 549.395 237.332,547.011 234.436,544.878 232.509 C 542.745 230.582,541.000 228.828,541.000 228.611 C 541.000 228.394,542.061 227.951,543.357 227.625 C 547.664 226.544,553.666 218.854,555.058 212.632 C 555.751 209.535,556.396 207.000,556.491 207.000 C 556.586 207.000,558.154 209.301,559.977 212.114 M954.897 229.302 C 955.401 231.394,955.456 232.969,955.020 232.802 C 954.583 232.636,950.954 229.404,946.956 225.620 L 939.687 218.740 946.093 212.985 L 952.500 207.229 953.240 216.365 C 953.647 221.389,954.393 227.211,954.897 229.302 M507.517 232.562 C 504.889 234.549,496.476 237.000,492.286 237.000 C 488.291 237.000,483.033 234.952,481.128 232.655 C 479.861 231.127,480.901 231.002,494.628 231.032 C 508.060 231.061,509.308 231.209,507.517 232.562 M780.540 231.935 C 780.222 232.450,777.479 233.800,774.443 234.935 C 765.309 238.353,753.971 237.289,750.128 232.655 C 748.860 231.127,749.994 231.000,764.937 231.000 C 774.723 231.000,780.890 231.370,780.540 231.935 M615.375 239.051 C 623.993 241.390,624.627 242.003,618.417 241.990 C 615.318 241.984,611.559 241.077,608.250 239.536 C 599.317 235.377,601.332 235.240,615.375 239.051 " stroke="none" fill="var(--honor-theme, #33CCBB)" fill-rule="evenodd"/></svg>